<svg xmlns="http://www.w3.org/2000/svg" width="32" height="32" viewBox="0 0 32 32" shape-rendering="crispEdges"><path fill="#cccccc" d="M23 15h1v1H23zM24 16h1v1H24zM24 17h1v1H24zM29 20h1v1H29zM29 21h1v1H29zM30 22h1v1H30zM30 23h1v1H30zM30 24h1v1H30zM29 25h1v1H29zM9 26h2v1H9zM14 26h11v1H14zM28 26h2v1H28zM11 27h3v1H11zM25 27h3v1H25z"/><path fill="#ee9900" d="M14 6h1v1H14zM15 7h1v1H15zM15 8h1v1H15zM16 9h1v1H16zM16 10h1v1H16zM16 11h1v1H16zM15 12h1v1H15zM7 13h1v1H7zM15 13h1v1H15zM8 14h2v1H8zM13 14h2v1H13zM10 15h3v1H10z"/><path fill="#ffcc00" d="M10 6h3v1H10zM8 7h7v1H8zM8 8h7v1H8zM7 9h9v1H7zM7 10h9v1H7zM7 11h9v1H7zM8 12h7v1H8zM8 13h7v1H8zM10 14h3v1H10z"/><path fill="#ffee88" d="M10 5h3v1H10zM8 6h2v1H8zM13 6h1v1H13zM7 7h1v1H7zM7 8h1v1H7zM6 9h1v1H6zM6 10h1v1H6zM6 11h1v1H6zM7 12h1v1H7z"/><path fill="#ffffff" d="M18 14h3v1H18zM15 15h8v1H15zM14 16h10v1H14zM14 17h10v1H14zM13 18h13v1H13zM11 19h17v1H11zM9 20h20v1H9zM9 21h20v1H9zM8 22h22v1H8zM8 23h22v1H8zM8 24h22v1H8zM9 25h20v1H9zM11 26h3v1H11zM25 26h3v1H25z"/><path fill="#000000" d="M11 0h1v1H11zM11 1h1v1H11zM11 2h1v1H11zM4 3h1v1H4zM18 3h1v1H18zM5 4h1v1H5zM10 4h3v1H10zM17 4h1v1H17zM8 5h2v1H8zM13 5h2v1H13zM7 6h1v1H7zM15 6h1v1H15zM6 7h1v1H6zM16 7h1v1H16zM6 8h1v1H6zM16 8h1v1H16zM5 9h1v1H5zM17 9h1v1H17zM1 10h3v1H1zM5 10h1v1H5zM17 10h1v1H17zM19 10h3v1H19zM5 11h1v1H5zM17 11h1v1H17zM6 12h1v1H6zM16 12h1v1H16zM6 13h1v1H6zM16 13h1v1H16zM18 13h3v1H18zM7 14h1v1H7zM15 14h3v1H15zM21 14h3v1H21zM8 15h2v1H8zM13 15h2v1H13zM24 15h1v1H24zM5 16h1v1H5zM10 16h4v1H10zM25 16h1v1H25zM4 17h1v1H4zM13 17h1v1H13zM25 17h1v1H25zM11 18h2v1H11zM26 18h2v1H26zM9 19h2v1H9zM28 19h2v1H28zM8 20h1v1H8zM30 20h1v1H30zM8 21h1v1H8zM30 21h1v1H30zM7 22h1v1H7zM31 22h1v1H31zM7 23h1v1H7zM31 23h1v1H31zM7 24h1v1H7zM31 24h1v1H31zM8 25h1v1H8zM30 25h1v1H30zM8 26h1v1H8zM30 26h1v1H30zM9 27h2v1H9zM14 27h11v1H14zM28 27h2v1H28zM11 28h3v1H11zM25 28h3v1H25z"/></svg>
